<?xml version="1.0" encoding="utf-8"?>
<!-- Generator: Adobe Illustrator 16.0.3, SVG Export Plug-In . SVG Version: 6.00 Build 0)  -->
<!DOCTYPE svg PUBLIC "-//W3C//DTD SVG 1.1//EN" "http://www.w3.org/Graphics/SVG/1.1/DTD/svg11.dtd">
<svg version="1.1" id="Layer_1" xmlns="http://www.w3.org/2000/svg" xmlns:xlink="http://www.w3.org/1999/xlink" x="0px" y="0px"
	 width="100px" height="50px" viewBox="0 0 100 50" enable-background="new 0 0 100 50" xml:space="preserve">
<g>
	<g opacity="0.49">
		<path fill="#FFFFFF" d="M19.59,38.246c-0.021-0.234-0.042-0.468-0.063-0.702c-0.605,0.605-1.209,1.209-1.814,1.814
			c2.106-0.091,6.148,0.326,7.545-1.736c1.388-2.049-0.181-4.013-1.608-5.555c-2.372-2.562-5.636-4.328-8.455-6.333
			c-2.865-2.04-7.931-6.409-2.419-9.635c3.311-1.938,7.278-3.048,11.094-3.241c-0.605-0.605-1.209-1.209-1.814-1.814
			c0,0.235,0,0.47,0,0.705c0.605-0.605,1.209-1.209,1.814-1.814c-4.507,0.23-18.377,2.996-17.267,9.941
			c0.625,3.905,4.2,6.238,7.184,8.427c2.191,1.608,4.483,3.025,6.607,4.734c1.142,0.673,1.69,1.707,1.644,3.101
			c-1.254,0.381-2.936,0.24-4.261,0.295c-2.331,0.099-2.341,3.728,0,3.629c2.456-0.104,5.945,0.195,7.858-1.717
			c1.704-1.704,0.712-4.409-0.693-5.925c-3.044-3.283-6.952-5.51-10.534-8.138c-1.148-0.824-2.203-1.752-3.163-2.784
			c-2.827-2.829,1.78-4.733,3.162-5.44c2.903-1.485,6.221-2.328,9.464-2.493c0.987-0.05,1.814-0.787,1.814-1.814
			c0-0.235,0-0.47,0-0.705c0-0.951-0.826-1.864-1.814-1.814C17.864,9.533,2.831,13.225,6.495,22.082
			c1.42,3.434,5.453,5.855,8.409,7.844c1.826,1.229,3.618,2.482,5.308,3.896c0.291,0.27,0.582,0.54,0.872,0.81
			c1.443,1.2,1.364,1.517-0.238,0.951c-1.031,0.121-2.097,0.101-3.133,0.146c-0.918,0.04-1.906,0.798-1.814,1.814
			c0.021,0.234,0.042,0.468,0.063,0.702C16.17,40.557,19.801,40.577,19.59,38.246z"/>
	</g>
</g>
<text transform="matrix(1.5344 0 0 1 -0.123 38.5186)" font-family="'MyriadPro-Regular'" font-size="45.9238">svg</text>
</svg>
